<svg width="83" height="83" viewBox="0 0 83 83" fill="none" xmlns="http://www.w3.org/2000/svg">
<path d="M24.6767 8.22747H12.3384C11.2476 8.22747 10.2015 8.66088 9.43019 9.43235C8.65889 10.2038 8.22558 11.2502 8.22558 12.3412V20.5687C8.22558 21.6597 8.65889 22.706 9.43019 23.4775C10.2015 24.249 11.2476 24.6824 12.3384 24.6824H20.564C21.6547 24.6824 22.7008 24.249 23.4721 23.4775C24.2434 22.706 24.6767 21.6597 24.6767 20.5687V8.22747ZM12.3795 32.9099V73.9032H20.564V53.4785C20.564 51.2965 21.4306 49.2038 22.9732 47.6608C24.5158 46.1179 26.608 45.2511 28.7895 45.2511H37.0151C39.1967 45.2511 41.2889 46.1179 42.8315 47.6608C44.3741 49.2038 45.2407 51.2965 45.2407 53.4785V73.9032H69.9709V32.9099H61.6919C58.5332 32.9099 55.6461 31.721 53.4663 29.767C51.2042 31.7909 48.2757 32.9098 45.2407 32.9099H37.0151C33.8565 32.9099 30.9693 31.721 28.7895 29.767C26.5274 31.7909 23.599 32.9098 20.564 32.9099H12.3795ZM4.15392 29.8081C2.84737 28.6497 1.8015 27.2271 1.08543 25.6344C0.369364 24.0416 -0.000597376 22.315 7.24032e-07 20.5687V12.3412C7.24032e-07 9.06811 1.29993 5.92908 3.61383 3.61465C5.92772 1.30023 9.06603 0 12.3384 0L69.9174 0C73.1898 0 76.3281 1.30023 78.642 3.61465C80.9559 5.92908 82.2558 9.06811 82.2558 12.3412V20.5687C82.2558 24.197 80.693 27.4633 78.1965 29.7217V73.9032C78.1965 76.0853 77.3299 78.178 75.7873 79.7209C74.2447 81.2639 72.1525 82.1307 69.9709 82.1307H38.5492C38.0435 82.2266 37.5299 82.2748 37.0151 82.2747H28.7895C28.2748 82.2748 27.7612 82.2266 27.2555 82.1307H12.3836C10.2021 82.1307 8.10984 81.2639 6.56725 79.7209C5.02465 78.178 4.15803 76.0853 4.15803 73.9032V29.804L4.15392 29.8081ZM37.0151 73.9073V53.4785H28.7895V73.9032L37.0151 73.9073ZM49.3535 8.22747H32.9023V20.5687C32.9023 21.6597 33.3356 22.706 34.1069 23.4775C34.8782 24.249 35.9243 24.6824 37.0151 24.6824H45.2407C46.3315 24.6824 47.3776 24.249 48.1489 23.4775C48.9202 22.706 49.3535 21.6597 49.3535 20.5687V8.22747ZM57.5791 8.22747V20.5687C57.5791 21.6597 58.0124 22.706 58.7837 23.4775C59.555 24.249 60.6011 24.6824 61.6919 24.6824H69.9174C71.0082 24.6824 72.0543 24.249 72.8256 23.4775C73.5969 22.706 74.0302 21.6597 74.0302 20.5687V12.3412C74.0302 11.2502 73.5969 10.2038 72.8256 9.43235C72.0543 8.66088 71.0082 8.22747 69.9174 8.22747H57.5791ZM57.5791 45.2511H61.6919C62.7826 45.2511 63.8287 45.6845 64.6 46.456C65.3713 47.2274 65.8047 48.2738 65.8047 49.3648V61.706C65.8047 62.797 65.3713 63.8434 64.6 64.6149C63.8287 65.3863 62.7826 65.8197 61.6919 65.8197H57.5791C56.4883 65.8197 55.4422 65.3863 54.6709 64.6149C53.8996 63.8434 53.4663 62.797 53.4663 61.706V49.3648C53.4663 48.2738 53.8996 47.2274 54.6709 46.456C55.4422 45.6845 56.4883 45.2511 57.5791 45.2511Z" fill="black"/>
</svg>
